<svg width="256" height="256" viewBox="0 0 256 256" fill="none" xmlns="http://www.w3.org/2000/svg">
  <defs>
    <filter id="cardShadow" x="4" y="10" width="248" height="238" filterUnits="userSpaceOnUse" color-interpolation-filters="sRGB">
      <feFlood flood-opacity="0" result="BackgroundImageFix"/>
      <feColorMatrix in="SourceAlpha" type="matrix" values="0 0 0 0 0 0 0 0 0 0 0 0 0 0 0 0 0 0 127 0" result="hardAlpha"/>
      <feOffset dy="8"/>
      <feGaussianBlur stdDeviation="12"/>
      <feColorMatrix type="matrix" values="0 0 0 0 0.16 0 0 0 0 0.03 0 0 0 0 0.33 0 0 0 0.24 0"/>
      <feBlend mode="normal" in2="BackgroundImageFix" result="effect1_dropShadow_1_1"/>
      <feBlend mode="normal" in="SourceGraphic" in2="effect1_dropShadow_1_1" result="shape"/>
    </filter>
    <linearGradient id="cardFill" x1="48" y1="34" x2="208" y2="230" gradientUnits="userSpaceOnUse">
      <stop stop-color="#BC3FE8"/>
      <stop offset="0.42" stop-color="#8D24D5"/>
      <stop offset="1" stop-color="#5B22B3"/>
    </linearGradient>
    <radialGradient id="cardGlow" cx="0" cy="0" r="1" gradientUnits="userSpaceOnUse" gradientTransform="translate(126 66) rotate(90) scale(84 118)">
      <stop stop-color="#E28AF4" stop-opacity="0.41"/>
      <stop offset="0.48" stop-color="#BA47E0" stop-opacity="0.14"/>
      <stop offset="1" stop-color="#5B22B3" stop-opacity="0"/>
    </radialGradient>
    <linearGradient id="whiteBar" x1="74" y1="76" x2="94" y2="188" gradientUnits="userSpaceOnUse">
      <stop stop-color="#FFFDFE"/>
      <stop offset="1" stop-color="#F2EAF6"/>
    </linearGradient>
    <linearGradient id="yellowBar" x1="118" y1="76" x2="138" y2="188" gradientUnits="userSpaceOnUse">
      <stop stop-color="#FFE94B"/>
      <stop offset="1" stop-color="#FFD200"/>
    </linearGradient>
    <linearGradient id="cyanBar" x1="162" y1="76" x2="182" y2="188" gradientUnits="userSpaceOnUse">
      <stop stop-color="#7BF3F0"/>
      <stop offset="1" stop-color="#57DCD8"/>
    </linearGradient>
  </defs>

  <g filter="url(#cardShadow)">
    <rect x="18" y="18" width="220" height="220" rx="46" fill="url(#cardFill)"/>
    <rect x="18" y="18" width="220" height="220" rx="46" fill="url(#cardGlow)"/>
  </g>

  <g>
    <rect x="63" y="113" width="16" height="38" rx="8" fill="#1C0635" fill-opacity="0.20"/>
    <rect x="101" y="94.5" width="16" height="75" rx="8" fill="#1C0635" fill-opacity="0.20"/>
    <rect x="139" y="76" width="16" height="112" rx="8" fill="#1C0635" fill-opacity="0.20"/>
    <rect x="177" y="104" width="16" height="56" rx="8" fill="#1C0635" fill-opacity="0.20"/>
    <rect x="63" y="109" width="16" height="38" rx="8" fill="url(#whiteBar)"/>
    <rect x="101" y="90.5" width="16" height="75" rx="8" fill="url(#yellowBar)"/>
    <rect x="139" y="72" width="16" height="112" rx="8" fill="url(#cyanBar)"/>
    <rect x="177" y="100" width="16" height="56" rx="8" fill="url(#whiteBar)"/>
  </g>
</svg>
