<svg width="256" height="256" viewBox="0 0 256 256" fill="none" xmlns="http://www.w3.org/2000/svg">
  <defs>
    <linearGradient id="cardFill" x1="34" y1="34" x2="222" y2="224" gradientUnits="userSpaceOnUse">
      <stop stop-color="#FFFFFF"/>
      <stop offset="1" stop-color="#FAFAFB"/>
    </linearGradient>
    <radialGradient id="irisBase" cx="0" cy="0" r="1" gradientUnits="userSpaceOnUse" gradientTransform="translate(128 128) rotate(90) scale(39)">
      <stop offset="0.58" stop-color="#434345"/>
      <stop offset="1" stop-color="#3E3E40"/>
    </radialGradient>
    <linearGradient id="irisAccent" x1="88" y1="128" x2="126" y2="83" gradientUnits="userSpaceOnUse">
      <stop offset="0" stop-color="#434345" stop-opacity="0"/>
      <stop offset="0.12" stop-color="#55555C" stop-opacity="0.38"/>
      <stop offset="0.28" stop-color="#6A5A7B" stop-opacity="0.82"/>
      <stop offset="0.52" stop-color="#6F498B" stop-opacity="0.98"/>
      <stop offset="0.76" stop-color="#5C74AF" stop-opacity="0.98"/>
      <stop offset="1" stop-color="#35DFE8" stop-opacity="1"/>
    </linearGradient>
    <linearGradient id="irisAccentSoft" x1="92" y1="126" x2="123" y2="87" gradientUnits="userSpaceOnUse">
      <stop offset="0" stop-color="#434345" stop-opacity="0"/>
      <stop offset="0.18" stop-color="#6A6176" stop-opacity="0.1"/>
      <stop offset="0.44" stop-color="#6F4E91" stop-opacity="0.24"/>
      <stop offset="0.76" stop-color="#58A8D0" stop-opacity="0.2"/>
      <stop offset="1" stop-color="#62E9F0" stop-opacity="0"/>
    </linearGradient>
    <radialGradient id="outerLens" cx="0" cy="0" r="1" gradientUnits="userSpaceOnUse" gradientTransform="translate(128 128) rotate(90) scale(74)">
      <stop offset="0.72" stop-color="#181818"/>
      <stop offset="1" stop-color="#151515"/>
    </radialGradient>
  </defs>

  <rect x="18" y="18" width="220" height="220" rx="46" fill="url(#cardFill)"/>

  <circle cx="52" cy="52" r="10.5" fill="#FF2A2A"/>

  <circle cx="128" cy="128" r="75" fill="url(#outerLens)"/>
  <circle cx="128" cy="128" r="45" fill="url(#irisBase)"/>
  <path d="M128 83 A45 45 0 0 0 83 128 L111 128 A17 17 0 0 1 128 111 Z" fill="url(#irisAccent)"/>
  <path d="M128 86 A42 42 0 0 0 86 128 L111 128 A17 17 0 0 1 128 111 Z" fill="url(#irisAccentSoft)"/>
  <circle cx="128" cy="128" r="17" fill="#020202"/>
</svg>
